# xmcd CD database file generated by Grip 3.2.0
# 
# Track frame offsets:
#       150
#       18752
#       56297
#       68010
#       106437
#       128425
#       194352
#       230002
# 
# Disc length: 3212 seconds
# 
# Revision: 3
# Processed by: cddbd v1.5.1PL0 Copyright (c) Steve Scherf et al.
# Submitted via: Grip 3.2.0
# 
DISCID=5e0c8a08
DTITLE=Santana - Double Up CD1
DYEAR=1997
DGENRE=Blues
TTITLE0=With a little help from my friends
TTITLE1=Jammin' Home
TTITLE2=Acapulco sunrise
TTITLE3=Jam in E
TTITLE4=Travelin' blues
TTITLE5=Santana jam
TTITLE6=Jam in G minor
TTITLE7=Coconut Groove, Hawaii
EXTD=
EXTT0=
EXTT1=
EXTT2=
EXTT3=
EXTT4=
EXTT5=
EXTT6=
EXTT7=
PLAYORDER=
